<?xml version="1.0" encoding="UTF-8" standalone="no" ?>
<!DOCTYPE svg PUBLIC "-//W3C//DTD SVG 1.1//EN" "http://www.w3.org/Graphics/SVG/1.1/DTD/svg11.dtd">
<svg xmlns="http://www.w3.org/2000/svg" xmlns:xlink="http://www.w3.org/1999/xlink" version="1.1" width="1280" height="800" viewBox="0 0 1280 800" xml:space="preserve">
<desc>Created with Fabric.js 4.6.0</desc>
<defs>
</defs>
<g transform="matrix(0.83 -0.39 0.39 0.83 138.23 103.11)" id="J7_E79KrCFW5euMxfQbWV"  >
<path style="stroke: rgb(204,55,22); stroke-width: 0; stroke-dasharray: none; stroke-linecap: butt; stroke-dashoffset: 0; stroke-linejoin: miter; stroke-miterlimit: 4; fill: rgb(0,221,179); fill-rule: nonzero; opacity: 1;" vector-effect="non-scaling-stroke"  transform=" translate(0, 0)" d="M -51.94805 -51.94805 L 51.94805 -51.94805 L 51.94805 51.94805 L -51.94805 51.94805 z" stroke-linecap="round" />
</g>
<g transform="matrix(1.11 0 0 1.11 40.84 334.21)" id="Lny0JAOjdZfyiK-UgIXjd"  >
<path style="stroke: rgb(87,85,101); stroke-width: 0; stroke-dasharray: none; stroke-linecap: butt; stroke-dashoffset: 0; stroke-linejoin: miter; stroke-miterlimit: 4; fill: rgb(135,70,255); fill-rule: nonzero; opacity: 1;" vector-effect="non-scaling-stroke"  transform=" translate(0, 0)" d="M 0 -51.94805 C 28.67532 -51.94805 51.94805 -28.675320000000003 51.94805 0 C 51.94805 28.67532 28.675320000000003 51.94805 0 51.94805 C -28.67532 51.94805 -51.94805 28.675320000000003 -51.94805 0 C -51.94805 -28.67532 -28.675320000000003 -51.94805 0 -51.94805 z" stroke-linecap="round" />
</g>
<g transform="matrix(1.38 0.34 -0.34 1.38 220.99 483.24)" id="CdhQI9f8dhZOfMnIBtX9y"  >
<path style="stroke: none; stroke-width: 1; stroke-dasharray: none; stroke-linecap: butt; stroke-dashoffset: 0; stroke-linejoin: miter; stroke-miterlimit: 4; fill: rgb(254,221,126); fill-rule: nonzero; opacity: 1;" vector-effect="non-scaling-stroke"  transform=" translate(-40, -40)" d="M 60 40 L 80 80 L 40 80 L 0 80 L 20 40 L 40 0 L 60 40 z" stroke-linecap="round" />
</g>
<g transform="matrix(1.41 0 0 1.41 21.09 655.6)" id="tHIQv8FkYTZjm7jMNllfj"  >
<path style="stroke: rgb(120,33,252); stroke-width: 0; stroke-dasharray: none; stroke-linecap: butt; stroke-dashoffset: 0; stroke-linejoin: miter; stroke-miterlimit: 4; fill: rgb(253,171,250); fill-rule: nonzero; opacity: 1;" vector-effect="non-scaling-stroke"  transform=" translate(0, 0)" d="M -51.94805 -51.94805 L 51.94805 -51.94805 L 51.94805 51.94805 L -51.94805 51.94805 z" stroke-linecap="round" />
</g>
<g transform="matrix(1.35 0 0 1.35 1279.48 404.45)" id="2bsnraxFlZvNQWdTzNEnU"  >
<path style="stroke: rgb(87,85,101); stroke-width: 0; stroke-dasharray: none; stroke-linecap: butt; stroke-dashoffset: 0; stroke-linejoin: miter; stroke-miterlimit: 4; fill: rgb(0,221,179); fill-rule: nonzero; opacity: 1;" vector-effect="non-scaling-stroke"  transform=" translate(0, 0)" d="M 0 -51.94805 C 28.67532 -51.94805 51.94805 -28.675320000000003 51.94805 0 C 51.94805 28.67532 28.675320000000003 51.94805 0 51.94805 C -28.67532 51.94805 -51.94805 28.675320000000003 -51.94805 0 C -51.94805 -28.67532 -28.675320000000003 -51.94805 0 -51.94805 z" stroke-linecap="round" />
</g>
<g transform="matrix(0.98 -0.79 0.79 0.98 1093.51 287.18)" id="jYtHyaOpJrTt_tLZi_dh6"  >
<path style="stroke: none; stroke-width: 1; stroke-dasharray: none; stroke-linecap: butt; stroke-dashoffset: 0; stroke-linejoin: miter; stroke-miterlimit: 4; fill: rgb(135,70,255); fill-rule: nonzero; opacity: 1;" vector-effect="non-scaling-stroke"  transform=" translate(-40, -40)" d="M 60 40 L 80 80 L 40 80 L 0 80 L 20 40 L 40 0 L 60 40 z" stroke-linecap="round" />
</g>
<g transform="matrix(1.07 0 0 1.07 1167.98 130.82)" id="yeRy7ttwdE8Vxc1HDNekn"  >
<path style="stroke: rgb(87,85,101); stroke-width: 0; stroke-dasharray: none; stroke-linecap: butt; stroke-dashoffset: 0; stroke-linejoin: miter; stroke-miterlimit: 4; fill: rgb(253,171,250); fill-rule: nonzero; opacity: 1;" vector-effect="non-scaling-stroke"  transform=" translate(0, 0)" d="M 0 -51.94805 C 28.67532 -51.94805 51.94805 -28.675320000000003 51.94805 0 C 51.94805 28.67532 28.675320000000003 51.94805 0 51.94805 C -28.67532 51.94805 -51.94805 28.675320000000003 -51.94805 0 C -51.94805 -28.67532 -28.675320000000003 -51.94805 0 -51.94805 z" stroke-linecap="round" />
</g>
<g transform="matrix(0.79 0.11 -0.11 0.79 1184.73 689.73)" id="qhMSUr1AzSC_dogT5GCy-"  >
<path style="stroke: rgb(225,185,94); stroke-width: 0; stroke-dasharray: none; stroke-linecap: butt; stroke-dashoffset: 0; stroke-linejoin: miter; stroke-miterlimit: 4; fill: rgb(254,221,126); fill-rule: nonzero; opacity: 1;" vector-effect="non-scaling-stroke"  transform=" translate(0, 0)" d="M -51.94805 -51.94805 L 51.94805 -51.94805 L 51.94805 51.94805 L -51.94805 51.94805 z" stroke-linecap="round" />
</g>
<g transform="matrix(0.95 0.95 -0.95 0.95 1061.18 521.47)" id="uh6TviwajrDSwZOaF6MOb"  >
<path style="stroke: none; stroke-width: 1; stroke-dasharray: none; stroke-linecap: butt; stroke-dashoffset: 0; stroke-linejoin: miter; stroke-miterlimit: 4; fill: rgb(253,171,250); fill-rule: nonzero; opacity: 1;" vector-effect="non-scaling-stroke"  transform=" translate(-40, -40)" d="M 60 40 L 80 80 L 40 80 L 0 80 L 20 40 L 40 0 L 60 40 z" stroke-linecap="round" />
</g>
</svg>