<?xml version="1.0" encoding="UTF-8" standalone="no" ?>
<!DOCTYPE svg PUBLIC "-//W3C//DTD SVG 1.1//EN" "http://www.w3.org/Graphics/SVG/1.1/DTD/svg11.dtd">
<svg xmlns="http://www.w3.org/2000/svg" xmlns:xlink="http://www.w3.org/1999/xlink" version="1.1" width="375" height="812" viewBox="0 0 375 812" xml:space="preserve">
<desc>Created with Fabric.js 4.6.0</desc>
<defs>
</defs>
<g transform="matrix(0.85 0.21 -0.21 0.85 14.57 90.66)" id="5pxoL7tseujtmhA7x4Md4"  >
<path style="stroke: rgb(27,86,212); stroke-width: 0; stroke-dasharray: none; stroke-linecap: butt; stroke-dashoffset: 0; stroke-linejoin: miter; stroke-miterlimit: 4; fill: rgb(135,70,255); fill-rule: nonzero; opacity: 1;" vector-effect="non-scaling-stroke"  transform=" translate(0, 0)" d="M -51.94805 -51.94805 L 51.94805 -51.94805 L 51.94805 51.94805 L -51.94805 51.94805 z" stroke-linecap="round" />
</g>
<g transform="matrix(1.96 0 0 1.96 413.62 218.69)" id="7T9uH0ETv-ZzmD6Y_UR4R"  >
<path style="stroke: rgb(87,85,101); stroke-width: 0; stroke-dasharray: none; stroke-linecap: butt; stroke-dashoffset: 0; stroke-linejoin: miter; stroke-miterlimit: 4; fill: rgb(254,221,126); fill-rule: nonzero; opacity: 1;" vector-effect="non-scaling-stroke"  transform=" translate(0, 0)" d="M 0 -51.94805 C 28.67532 -51.94805 51.94805 -28.675320000000003 51.94805 0 C 51.94805 28.67532 28.675320000000003 51.94805 0 51.94805 C -28.67532 51.94805 -51.94805 28.675320000000003 -51.94805 0 C -51.94805 -28.67532 -28.675320000000003 -51.94805 0 -51.94805 z" stroke-linecap="round" />
</g>
<g transform="matrix(0.54 -0.94 0.94 0.54 14.57 328.26)" id="_IgYGPl-NvZR0Hg_c00wp"  >
<path style="stroke: none; stroke-width: 1; stroke-dasharray: none; stroke-linecap: butt; stroke-dashoffset: 0; stroke-linejoin: miter; stroke-miterlimit: 4; fill: rgb(253,171,250); fill-rule: nonzero; opacity: 1;" vector-effect="non-scaling-stroke"  transform=" translate(-40, -40)" d="M 60 40 L 80 80 L 40 80 L 0 80 L 20 40 L 40 0 L 60 40 z" stroke-linecap="round" />
</g>
<g transform="matrix(0.76 -0.28 0.28 0.76 338.27 426.07)" id="WC3DFLRoIhO_3RL9mHeC8"  >
<path style="stroke: rgb(204,55,22); stroke-width: 0; stroke-dasharray: none; stroke-linecap: butt; stroke-dashoffset: 0; stroke-linejoin: miter; stroke-miterlimit: 4; fill: rgb(0,221,179); fill-rule: nonzero; opacity: 1;" vector-effect="non-scaling-stroke"  transform=" translate(0, 0)" d="M -51.94805 -51.94805 L 51.94805 -51.94805 L 51.94805 51.94805 L -51.94805 51.94805 z" stroke-linecap="round" />
</g>
<g transform="matrix(0.69 0.34 -0.34 0.69 45.88 655.21)" id="RuNQNp05HtemCMkcNXwPN"  >
<path style="stroke: rgb(225,185,94); stroke-width: 0; stroke-dasharray: none; stroke-linecap: butt; stroke-dashoffset: 0; stroke-linejoin: miter; stroke-miterlimit: 4; fill: rgb(254,221,126); fill-rule: nonzero; opacity: 1;" vector-effect="non-scaling-stroke"  transform=" translate(0, 0)" d="M -51.94805 -51.94805 L 51.94805 -51.94805 L 51.94805 51.94805 L -51.94805 51.94805 z" stroke-linecap="round" />
</g>
<g transform="matrix(0.91 0 0 0.91 -15.39 495.88)" id="9LIx23W3buURBe8CySQGd"  >
<path style="stroke: rgb(87,85,101); stroke-width: 0; stroke-dasharray: none; stroke-linecap: butt; stroke-dashoffset: 0; stroke-linejoin: miter; stroke-miterlimit: 4; fill: rgb(0,221,179); fill-rule: nonzero; opacity: 1;" vector-effect="non-scaling-stroke"  transform=" translate(0, 0)" d="M 0 -51.94805 C 28.67532 -51.94805 51.94805 -28.675320000000003 51.94805 0 C 51.94805 28.67532 28.675320000000003 51.94805 0 51.94805 C -28.67532 51.94805 -51.94805 28.675320000000003 -51.94805 0 C -51.94805 -28.67532 -28.675320000000003 -51.94805 0 -51.94805 z" stroke-linecap="round" />
</g>
<g transform="matrix(1.68 -0.36 0.36 1.68 320.57 715.02)" id="GNGsbYn9yhSLm06oyDCB4"  >
<path style="stroke: none; stroke-width: 1; stroke-dasharray: none; stroke-linecap: butt; stroke-dashoffset: 0; stroke-linejoin: miter; stroke-miterlimit: 4; fill: rgb(135,70,255); fill-rule: nonzero; opacity: 1;" vector-effect="non-scaling-stroke"  transform=" translate(-40, -40)" d="M 60 40 L 80 80 L 40 80 L 0 80 L 20 40 L 40 0 L 60 40 z" stroke-linecap="round" />
</g>
</svg>